<svg xmlns="http://www.w3.org/2000/svg" viewBox="0 0 37.661 37.661"><defs><style>.a{fill:#fff;}.b{fill:#292929;}</style></defs><ellipse class="a" cx="18.831" cy="18.831" rx="18.831" ry="18.831"/><g transform="translate(8.552 10.043)"><path class="b" d="M31.221,14.84a6.29,6.29,0,0,1-2.354.706,4.372,4.372,0,0,0,1.8-2.432A9.077,9.077,0,0,1,28,14.212,4.005,4.005,0,0,0,25.023,12.8a4.312,4.312,0,0,0-4.158,4.472,4.474,4.474,0,0,0,.078,1.02,11.484,11.484,0,0,1-8.552-4.629,4.257,4.257,0,0,0-.549,2.275,4.463,4.463,0,0,0,1.8,3.688,3.778,3.778,0,0,1-1.883-.549v.078a4.5,4.5,0,0,0,3.3,4.394,4.631,4.631,0,0,1-1.1.157,2.669,2.669,0,0,1-.785-.078,4.079,4.079,0,0,0,3.845,3.06,8.012,8.012,0,0,1-5.1,1.883,4.826,4.826,0,0,1-1.02-.078,11.147,11.147,0,0,0,6.355,2.04c7.611,0,11.769-6.748,11.769-12.632v-.549A9.374,9.374,0,0,0,31.221,14.84Z" transform="translate(-10.9 -12.8)"/></g></svg>