<svg xmlns="http://www.w3.org/2000/svg" viewBox="0 0 72 72"><defs><style>.a{fill:#141414;stroke-width:0.4px;}.a,.b{stroke:#2f2f2f;}.b,.d{fill:none;}.b{stroke-width:1.8px;}.c{stroke:none;}</style></defs><g transform="translate(-950 -106)"><g transform="translate(967.28 121.36)"><path class="a" d="M31.227,0H6.556a.687.687,0,0,0-.669.718V15.585L.442,18.034a.73.73,0,0,0-.442.64v19.8a3.376,3.376,0,0,0,3.363,3.354H34.42a3.376,3.376,0,0,0,3.363-3.354v-19.8a.73.73,0,0,0-.442-.64L31.9,15.585V.718A.687.687,0,0,0,31.227,0Zm5.045,39.061-12.05-10.25,12.154-8.763V38.471A1.935,1.935,0,0,1,36.272,39.061ZM30.489,1.406V22.519L20,30.1a1.891,1.891,0,0,1-2.236,0L7.293,22.519V1.406ZM1.511,39.061a1.923,1.923,0,0,1-.1-.591V20.048l12.158,8.766ZM5.887,21.505l-3.73-2.691,3.73-1.687ZM3.363,40.418a1.93,1.93,0,0,1-.952-.259L14.756,29.665l2.182,1.572a3.335,3.335,0,0,0,3.907,0l2.186-1.577,12.342,10.5a1.93,1.93,0,0,1-.952.259Zm32.263-21.6L31.9,21.505V17.128Zm0,0" transform="translate(0)"/><path class="a" d="M118.277,160.406h7.807a.7.7,0,1,0,0-1.406h-7.807a.7.7,0,0,0,0,1.406Zm0,0" transform="translate(-107.243 -145.029)"/><path class="a" d="M117.574,192.7a.7.7,0,0,0,.7.7h15.715a.7.7,0,1,0,0-1.406H118.277A.7.7,0,0,0,117.574,192.7Zm0,0" transform="translate(-107.243 -175.13)"/><path class="a" d="M133.992,224H118.277a.7.7,0,1,0,0,1.406h15.715a.7.7,0,1,0,0-1.406Zm0,0" transform="translate(-107.243 -204.318)"/><path class="a" d="M133.992,257H118.277a.7.7,0,1,0,0,1.406h15.715a.7.7,0,1,0,0-1.406Zm0,0" transform="translate(-107.243 -234.418)"/></g><g class="b" transform="translate(950 106)"><circle class="c" cx="36" cy="36" r="36"/><circle class="d" cx="36" cy="36" r="35.1"/></g></g></svg>