<svg xmlns="http://www.w3.org/2000/svg" viewBox="0 0 38.949 19.745"><defs><style>.a{fill:#e00b34;}</style></defs><g transform="translate(0 -85.26)"><path class="a" d="M81.159,104.988l.043-.011.037-.009.042-.015.036-.013.038-.018.037-.018.035-.021.036-.022.036-.027.03-.023c.018-.015.036-.031.052-.047l.009-.008.009-.01c.016-.017.032-.034.047-.052s.016-.022.024-.033.017-.022.025-.034.016-.025.023-.038.013-.021.019-.033.013-.026.019-.04.011-.023.016-.035.01-.026.014-.039.01-.026.014-.039.007-.027.01-.04.007-.026.01-.04.005-.032.007-.048,0-.022,0-.034a.843.843,0,0,0,0-.084V86.1a.845.845,0,0,0-.845-.845H54.365l-.048,0-.038,0-.043.007-.04.008-.04.01-.039.012-.039.014-.036.015-.04.019-.033.018-.039.023-.031.021-.035.026-.031.026-.03.027-.032.033-.016.016-.008.01-.03.038-.021.029-.025.039-.02.032c-.007.013-.013.026-.02.039s-.012.024-.017.036-.01.026-.015.039-.01.025-.014.038-.008.026-.011.039-.007.027-.01.041,0,.026-.007.039,0,.029-.007.044,0,.025,0,.037,0,.032,0,.047,0,.009,0,.014v5.209a.845.845,0,1,0,1.689,0V87.98l7.51,6.649a.854.854,0,0,0-.112.093l-7.4,7.4V96.57a.845.845,0,0,0-1.689,0V97.6H49.178a.845.845,0,0,0,0,1.689h4.364v4.869a.845.845,0,0,0,.845.845H80.994c.028,0,.056,0,.083,0l.038-.006Zm-1.01-2.868-7.4-7.4-.015-.013L78.3,89.991A.845.845,0,1,0,77.206,88.7l-9.5,8.063L56.615,86.949H80.15Zm-16.326-6.2a.842.842,0,0,0,.147-.2l3.159,2.8a.845.845,0,0,0,1.107.012l3.22-2.732a.85.85,0,0,0,.1.122l7.4,7.4H56.426Z" transform="translate(-42.89 0)"/><path class="a" d="M.845,157.365H15.111a.845.845,0,1,0,0-1.689H.845a.845.845,0,1,0,0,1.689Z" transform="translate(0 -62.485)"/><path class="a" d="M13.97,116.034h6.406a.845.845,0,0,0,0-1.689H13.97a.845.845,0,0,0,0,1.689Z" transform="translate(-11.647 -25.809)"/><path class="a" d="M7.039,226.51H.845a.845.845,0,1,0,0,1.689H7.039a.845.845,0,1,0,0-1.689Z" transform="translate(0 -125.342)"/></g></svg>