<svg xmlns="http://www.w3.org/2000/svg" viewBox="0 0 37.661 37.661"><defs><style>.a{fill:#fff;}.b{fill:#292929;}</style></defs><path class="a" d="M18.831,0A18.831,18.831,0,1,1,0,18.831,18.831,18.831,0,0,1,18.831,0Z"/><path class="b" d="M27.129,12.3h-11.3A3.516,3.516,0,0,0,12.3,15.831v11.3a3.516,3.516,0,0,0,3.531,3.531h11.3a3.516,3.516,0,0,0,3.531-3.531v-11.3A3.516,3.516,0,0,0,27.129,12.3Zm1.02,2.118h.392v3.138H25.4V14.418ZM18.891,19.6a3.18,3.18,0,0,1,5.178,0A3.192,3.192,0,0,1,24.7,21.48a3.217,3.217,0,0,1-6.434,0A3.192,3.192,0,0,1,18.891,19.6Zm9.965,7.532a1.741,1.741,0,0,1-1.726,1.726h-11.3A1.741,1.741,0,0,1,14.1,27.129V19.6h2.746a5.022,5.022,0,1,0,9.258,0h2.746Z" transform="translate(-2.649 -2.649)"/></svg>