<svg xmlns="http://www.w3.org/2000/svg" viewBox="0 0 31 31"><defs><style>.a{fill:#d70b32;}</style></defs><path class="a" d="M27.973,2.664H25.087V1.816a1.816,1.816,0,1,0-3.633,0v.848H11.282V1.816a1.816,1.816,0,1,0-3.633,0v.87a.6.6,0,0,0-.161-.022H5.075A3.031,3.031,0,0,0,2.048,5.691V16a.605.605,0,0,0,1.211,0V8.9H25.087a.605.605,0,1,0,0-1.211H3.259v-2A1.818,1.818,0,0,1,5.075,3.875H7.488a.607.607,0,0,0,.161-.022v.779a1.816,1.816,0,1,0,3.633,0V3.875H21.454v.757a1.816,1.816,0,1,0,3.633,0V3.875h2.886a1.818,1.818,0,0,1,1.816,1.816V28.7a1.09,1.09,0,0,1-2.18,0V27.133A.605.605,0,0,0,27,26.527H19.96a.605.605,0,1,0,0,1.211H26.4V28.7a2.287,2.287,0,0,0,.275,1.09H2.3a1.091,1.091,0,0,1-1.09-1.09v-.961H14.763a.605.605,0,1,0,0-1.211H8.713a4.965,4.965,0,1,0-6.47,0H.605A.605.605,0,0,0,0,27.133V28.7A2.3,2.3,0,0,0,2.3,31H28.7A2.3,2.3,0,0,0,31,28.7V5.691A3.031,3.031,0,0,0,27.973,2.664Zm-17.9,1.968a.605.605,0,1,1-1.211,0V1.816a.605.605,0,1,1,1.211,0Zm13.8,0a.605.605,0,0,1-1.211,0V1.816a.605.605,0,0,1,1.211,0ZM1.724,22.766A3.754,3.754,0,1,1,5.478,26.52,3.758,3.758,0,0,1,1.724,22.766Z"/><g transform="translate(27.024 7.664)"><path class="a" d="M452.357,127.192a.654.654,0,1,0,.192.463A.659.659,0,0,0,452.357,127.192Z" transform="translate(-451.24 -127)"/></g><g transform="translate(16.993 26.167)"><path class="a" d="M282.7,438.321a.655.655,0,1,0,.192.463A.658.658,0,0,0,282.7,438.321Z" transform="translate(-281.58 -438.13)"/></g><g transform="translate(11.237 18.148)"><path class="a" d="M190.731,304a2.486,2.486,0,1,0,2.486,2.486A2.489,2.489,0,0,0,190.731,304Zm0,3.664a1.178,1.178,0,1,1,1.178-1.178A1.179,1.179,0,0,1,190.731,307.664Z" transform="translate(-188.245 -304)"/></g><g transform="translate(16.809 18.148)"><path class="a" d="M284.064,304a2.486,2.486,0,1,0,2.486,2.486A2.489,2.489,0,0,0,284.064,304Zm0,3.664a1.178,1.178,0,1,1,1.178-1.178A1.179,1.179,0,0,1,284.064,307.664Z" transform="translate(-281.578 -304)"/></g><g transform="translate(22.03 18.148)"><path class="a" d="M377.4,304a2.486,2.486,0,1,0,2.486,2.486A2.489,2.489,0,0,0,377.4,304Zm0,3.664a1.178,1.178,0,1,1,1.178-1.178A1.179,1.179,0,0,1,377.4,307.664Z" transform="translate(-374.912 -304)"/></g><g transform="translate(5.666 11.939)"><path class="a" d="M97.4,200a2.486,2.486,0,1,0,2.486,2.486A2.489,2.489,0,0,0,97.4,200Zm0,3.664a1.178,1.178,0,1,1,1.178-1.178A1.179,1.179,0,0,1,97.4,203.664Z" transform="translate(-94.912 -200)"/></g><g transform="translate(16.809 11.939)"><path class="a" d="M284.064,200a2.486,2.486,0,1,0,2.486,2.486A2.489,2.489,0,0,0,284.064,200Zm0,3.664a1.178,1.178,0,1,1,1.178-1.178A1.179,1.179,0,0,1,284.064,203.664Z" transform="translate(-281.578 -200)"/></g><g transform="translate(22.03 11.939)"><path class="a" d="M377.4,200a2.486,2.486,0,1,0,2.486,2.486A2.489,2.489,0,0,0,377.4,200Zm0,3.664a1.178,1.178,0,1,1,1.178-1.178A1.179,1.179,0,0,1,377.4,203.664Z" transform="translate(-374.912 -200)"/></g><g transform="translate(11.237 11.939)"><path class="a" d="M190.731,200a2.486,2.486,0,1,0,2.486,2.486A2.489,2.489,0,0,0,190.731,200Zm0,3.664a1.178,1.178,0,1,1,1.178-1.178A1.179,1.179,0,0,1,190.731,203.664Z" transform="translate(-188.245 -200)"/></g><g transform="translate(3.35 20.888)"><path class="a" d="M56.1,348.892a.654.654,0,0,0-.925,0l-2.131,2.131-.728-.728a.654.654,0,1,0-.925.925l1.191,1.191a.654.654,0,0,0,.925,0l2.593-2.594A.654.654,0,0,0,56.1,348.892Z" transform="translate(-51.194 -348.7)"/></g></svg>