<svg xmlns="http://www.w3.org/2000/svg" viewBox="0 0 18.388 32.45"><defs><style>.a{fill:#e00b34;}</style></defs><g transform="translate(-110.933)"><g transform="translate(116.882 1.622)"><g transform="translate(0)"><path class="a" d="M210.75,25.6h-5.408a.541.541,0,0,0,0,1.082h5.408a.541.541,0,0,0,0-1.082Z" transform="translate(-204.801 -25.6)"/></g></g><g transform="translate(125.535 1.622)"><g transform="translate(0)"><path class="a" d="M342.416,25.6h-.541a.541.541,0,0,0,0,1.082h.541a.541.541,0,1,0,0-1.082Z" transform="translate(-341.334 -25.6)"/></g></g><g transform="translate(117.964 27.582)"><g transform="translate(0)"><path class="a" d="M224.7,435.2h-1.343a1.494,1.494,0,0,0-1.492,1.492v.261a1.493,1.493,0,0,0,1.492,1.492H224.7a1.494,1.494,0,0,0,1.492-1.492v-.261A1.494,1.494,0,0,0,224.7,435.2Zm.41,1.753a.41.41,0,0,1-.41.41h-1.343a.41.41,0,0,1-.41-.41v-.261a.411.411,0,0,1,.41-.41H224.7a.411.411,0,0,1,.411.41Z" transform="translate(-221.867 -435.2)"/></g></g><g transform="translate(110.933)"><g transform="translate(0)"><path class="a" d="M127.367,0H112.888a1.958,1.958,0,0,0-1.955,1.955v28.54a1.958,1.958,0,0,0,1.955,1.955h14.478a1.957,1.957,0,0,0,1.955-1.955V1.955A1.957,1.957,0,0,0,127.367,0Zm.873,30.495a.874.874,0,0,1-.873.873H112.888a.874.874,0,0,1-.873-.873V1.955a.874.874,0,0,1,.873-.873h14.478a.874.874,0,0,1,.873.873v28.54Z" transform="translate(-110.933)"/></g></g><g transform="translate(110.933 3.245)"><g transform="translate(0)"><path class="a" d="M128.781,51.2H111.475a.541.541,0,0,0-.541.541V74.456a.541.541,0,0,0,.541.541h17.307a.541.541,0,0,0,.541-.541V51.741A.541.541,0,0,0,128.781,51.2Zm-.541,22.715H112.016V52.282h16.225Z" transform="translate(-110.934 -51.2)"/></g></g></g></svg>