<svg xmlns="http://www.w3.org/2000/svg" viewBox="0 0 23 30.712"><defs><style>.a{fill:#d70b32;}</style></defs><g transform="translate(4.582)"><path class="a" d="M146.79,178.995a3.5,3.5,0,1,0-3.5-3.5A3.5,3.5,0,0,0,146.79,178.995Zm0-5.635a2.144,2.144,0,1,1-2.144,2.144A2.144,2.144,0,0,1,146.79,173.36Zm0,0" transform="translate(-139.872 -162.692)"/><path class="a" d="M114.039,325.122a5.249,5.249,0,0,0-3.8,1.59,5.611,5.611,0,0,0-1.569,3.971.678.678,0,0,0,.676.676h9.389a.678.678,0,0,0,.676-.676,5.611,5.611,0,0,0-1.569-3.971A5.249,5.249,0,0,0,114.039,325.122Zm-3.971,4.884a4.137,4.137,0,0,1,1.136-2.347,3.985,3.985,0,0,1,5.669,0,4.159,4.159,0,0,1,1.136,2.347Zm0,0" transform="translate(-107.121 -307.527)"/><path class="a" d="M15.036,0H-1.2A3.384,3.384,0,0,0-4.582,3.382V27.329A3.384,3.384,0,0,0-1.2,30.712H15.036a3.384,3.384,0,0,0,3.382-3.382V3.382A3.384,3.384,0,0,0,15.036,0Zm2.029,27.329a2.035,2.035,0,0,1-2.029,2.029H-1.2a2.035,2.035,0,0,1-2.029-2.029V3.382A2.035,2.035,0,0,1-1.2,1.353H15.036a2.035,2.035,0,0,1,2.029,2.029Zm0,0"/><path class="a" d="M143.969,60.228h5.412a.676.676,0,0,0,0-1.353h-5.412a.676.676,0,0,0,0,1.353Zm0,0" transform="translate(-139.872 -55.689)"/></g></svg>