<svg xmlns="http://www.w3.org/2000/svg" viewBox="0 0 37.661 37.661"><defs><style>.a{fill:#fff;}.b{fill:#292929;}</style></defs><ellipse class="a" cx="18.831" cy="18.831" rx="18.831" ry="18.831"/><path class="b" d="M30.289,17.962a.288.288,0,0,0-.078-.235v-.078a1.7,1.7,0,0,0-1.648-1.177h.157A52.6,52.6,0,0,0,21.5,16a54.058,54.058,0,0,0-7.218.471h.157a1.7,1.7,0,0,0-1.648,1.177v.078a.288.288,0,0,1-.078.235,38.134,38.134,0,0,0-.314,4.315,38.134,38.134,0,0,0,.314,4.315.288.288,0,0,0,.078.235v.078a1.7,1.7,0,0,0,1.648,1.177h-.157a52.6,52.6,0,0,0,7.218.471,54.058,54.058,0,0,0,7.218-.471h-.157a1.7,1.7,0,0,0,1.648-1.177v-.078a.288.288,0,0,1,.078-.235,38.135,38.135,0,0,0,.314-4.315A25.536,25.536,0,0,0,30.289,17.962Zm-6.12,4.708-3.688,2.668a.392.392,0,0,1-.471,0,.431.431,0,0,1-.235-.392V19.609a.431.431,0,0,1,.235-.392.5.5,0,0,1,.471,0l3.688,2.668a.6.6,0,0,1,.157.392A.287.287,0,0,1,24.169,22.669Z" transform="translate(-2.671 -3.446)"/></svg>