<svg xmlns="http://www.w3.org/2000/svg" viewBox="0 0 43.482 43.482"><defs><style>.a{fill:#d70b32;}</style></defs><path class="a" d="M37.113,6.369A21.74,21.74,0,1,0,6.369,37.113,21.74,21.74,0,1,0,37.113,6.369Zm-1.748,29A19.268,19.268,0,0,1,8.116,8.116,19.268,19.268,0,1,1,35.366,35.366Z"/><path class="a" d="M148.449,129.289a1.232,1.232,0,0,0-1.748,0l-7.833,7.833-7.833-7.833a1.236,1.236,0,0,0-1.748,1.748l7.833,7.833-7.833,7.833a1.24,1.24,0,0,0,.869,2.114,1.205,1.205,0,0,0,.869-.366l7.833-7.833,7.833,7.833a1.243,1.243,0,0,0,.869.366,1.19,1.19,0,0,0,.869-.366,1.232,1.232,0,0,0,0-1.748l-7.814-7.833,7.833-7.833A1.232,1.232,0,0,0,148.449,129.289Z" transform="translate(-117.128 -117.128)"/></svg>