<svg xmlns="http://www.w3.org/2000/svg" viewBox="0 0 75.167 41.001"><defs><style>.a{fill:#fff;}</style></defs><g transform="translate(0.017 0.073)"><path class="a" d="M.319,3.761C-1.231,18.336,2.18,30.895,18.925,30.585c7.752-.155,15.5-1.861,22.947-3.566,6.512-1.4,13.179-3.721,19.846-1.706C64.354,26.088,70.4,33.53,67.3,35.7c-4.651,3.256-13.644-.62-18.141-2.636-12.094-5.582-25.738-21.241-9.768-31.94A.627.627,0,1,0,38.771.04c-14.574,7.132-10.7,22.792.155,31.009,7.442,5.582,28.219,16.435,34.886,4.5C77.223,29.5,73.657,20.2,68.23,16.63,61.1,11.824,51.8,13.684,44.043,15.7c-9.3,2.326-17.675,7.442-27.288,8.683C3.731,26.243,1.25,14.46,1.56,3.761c0-.775-1.085-.62-1.24,0Z" transform="translate(0)"/></g></svg>