<svg xmlns="http://www.w3.org/2000/svg" viewBox="0 0 64.642 67.431"><defs><style>.a{fill:#fbaf17;}</style></defs><g transform="matrix(-0.087, -0.996, 0.996, -0.087, 5.939, 69.599)"><g transform="translate(-0.022 25.131)"><path class="a" d="M1.664,14.766C1.115,23.909-2.908,39.087,3.858,46.4c2.194,2.56,5.852.366,6.035-2.56.366-4.572-2.012-8.96-2.926-13.349C5.87,25.006,5.321,19.7,3.675,14.4c-.183-1.1-1.829-.731-2.012.366Z" transform="translate(0.022 -13.738)"/></g><g transform="translate(20.85 17.267)"><path class="a" d="M11.772,12.112c3.84,4.389,7.132,9.326,10.606,14.081,2.56,3.474,5.3,9.692,10.058,10.241,1.28.183,2.012-1.1,2.194-2.194.183-2.56-1.1-3.657-2.743-5.669-2.012-2.377-3.84-4.755-5.669-7.315A53,53,0,0,0,13.784,9.735c-1.646-1.1-3.109,1.1-2.012,2.377Z" transform="translate(-11.392 -9.437)"/></g><g transform="translate(40.946 -0.011)"><path class="a" d="M22.964,3.3C29.182,8.787,35.4,14.456,41.617,19.759c5.12,4.389,11.155-3.292,5.669-7.315C40.519,7.507,32.656,3.849,25.159.192A1.939,1.939,0,0,0,22.964,3.3Z" transform="translate(-22.381 0.011)"/></g></g></svg>