<svg xmlns="http://www.w3.org/2000/svg" viewBox="0 0 36 36"><defs><style>.a{fill:#404040;}</style></defs><path class="a" d="M30.727,5.273A18,18,0,1,0,5.273,30.727,18,18,0,1,0,30.727,5.273ZM29.28,29.28A15.953,15.953,0,0,1,6.72,6.72,15.953,15.953,0,1,1,29.28,29.28Z"/><path class="a" d="M143.895,129.2a.944.944,0,0,0-1.34,0l-6.005,6.005-6.005-6.005a.948.948,0,0,0-1.34,1.34l6.005,6.005-6.005,6.005a.951.951,0,0,0,.666,1.621.924.924,0,0,0,.667-.281l6.005-6.005,6.005,6.005a.953.953,0,0,0,.666.281.913.913,0,0,0,.667-.281.944.944,0,0,0,0-1.34l-5.991-6.005,6.005-6.005A.944.944,0,0,0,143.895,129.2Z" transform="translate(-118.549 -118.549)"/></svg>