<svg xmlns="http://www.w3.org/2000/svg" viewBox="0 0 26.758 27"><defs><style>.a{fill:#e00b34;}</style></defs><g transform="translate(-0.344 0)"><g transform="translate(0.344 0)"><path class="a" d="M21.5,42.577a2.627,2.627,0,0,0-1.912-.884,2.716,2.716,0,0,0-1.934.878l-1.787,1.8c-.147-.08-.294-.154-.435-.228-.2-.1-.4-.2-.56-.3a19.481,19.481,0,0,1-4.655-4.276,11.566,11.566,0,0,1-1.527-2.429c.464-.428.894-.872,1.312-1.3.158-.16.317-.325.475-.485a2.63,2.63,0,0,0,0-3.945L8.936,29.846c-.175-.177-.356-.359-.526-.542-.339-.353-.7-.718-1.063-1.06a2.667,2.667,0,0,0-1.895-.838,2.76,2.76,0,0,0-1.923.838l-.011.011L1.6,30.211A4.185,4.185,0,0,0,.368,32.862a10.065,10.065,0,0,0,.724,4.23,24.589,24.589,0,0,0,4.327,7.275,26.647,26.647,0,0,0,8.862,7,13.727,13.727,0,0,0,4.977,1.482c.119.006.243.011.356.011a4.246,4.246,0,0,0,3.263-1.414c.006-.011.017-.017.023-.029a12.914,12.914,0,0,1,.99-1.032c.243-.234.492-.479.735-.735a2.855,2.855,0,0,0,.854-1.973,2.75,2.75,0,0,0-.871-1.955Zm2.025,6c-.006,0-.006.006,0,0-.221.239-.447.456-.69.7a14.938,14.938,0,0,0-1.092,1.14,2.716,2.716,0,0,1-2.127.906c-.085,0-.175,0-.26-.006a12.2,12.2,0,0,1-4.411-1.334A25.153,25.153,0,0,1,6.6,43.392a23.185,23.185,0,0,1-4.072-6.836,8.2,8.2,0,0,1-.633-3.569,2.626,2.626,0,0,1,.78-1.693L4.6,29.35a1.281,1.281,0,0,1,.86-.4,1.206,1.206,0,0,1,.826.4l.017.017c.345.325.673.661,1.018,1.021.175.182.356.365.537.553l1.544,1.556a1.093,1.093,0,0,1,0,1.767c-.164.165-.322.331-.486.49-.475.49-.928.946-1.42,1.391-.011.011-.023.017-.028.029a1.17,1.17,0,0,0-.294,1.294l.017.051a12.514,12.514,0,0,0,1.827,3l.006.006a20.818,20.818,0,0,0,5.022,4.607,7.7,7.7,0,0,0,.7.382c.2.1.4.2.56.3.023.011.045.029.068.04a1.218,1.218,0,0,0,.56.143,1.206,1.206,0,0,0,.86-.393l1.934-1.95a1.276,1.276,0,0,1,.854-.428,1.149,1.149,0,0,1,.814.416l.011.011L23.522,46.8A1.133,1.133,0,0,1,23.528,48.58Z" transform="translate(-0.344 -25.856)"/><path class="a" d="M245.572,87.44a7.279,7.279,0,0,1,5.927,5.927.759.759,0,0,0,.752.633,1.01,1.01,0,0,0,.13-.011.764.764,0,0,0,.628-.882,8.8,8.8,0,0,0-7.171-7.171.767.767,0,0,0-.882.622A.755.755,0,0,0,245.572,87.44Z" transform="translate(-231.11 -81.013)"/><path class="a" d="M261.471,11.821A14.492,14.492,0,0,0,249.662.012a.762.762,0,1,0-.249,1.5A12.945,12.945,0,0,1,259.967,12.07a.759.759,0,0,0,.752.633,1.01,1.01,0,0,0,.13-.011A.749.749,0,0,0,261.471,11.821Z" transform="translate(-234.725 0)"/></g></g></svg>