<svg xmlns="http://www.w3.org/2000/svg" viewBox="0 0 175 46.777"><defs><style>.a{fill:#fff;}</style></defs><path class="a" d="M32.669,5.035a5.035,5.035,0,1,1-10.069,0,5.035,5.035,0,1,1,10.069,0" transform="translate(-8.197)"/><path class="a" d="M50.969,5.035a5.035,5.035,0,1,1-10.069,0,5.035,5.035,0,1,1,10.069,0" transform="translate(-14.835)"/><path class="a" d="M57.265,35a38.417,38.417,0,0,0-13.383,7.456c-.127.127-.255.191-.382.319a49.765,49.765,0,0,0,7.074,6.309,14.1,14.1,0,0,0,8.6,2.868h7.2c-.064,0-5.736-10.579-9.113-16.952" transform="translate(-15.778 -12.695)"/><path class="a" d="M38.938,27.593a42.2,42.2,0,0,0-8.03.574,82.382,82.382,0,0,0-24.09,8.349C3.505,42.824,0,49.261,0,49.261H7.2a14.1,14.1,0,0,0,8.6-2.868c.828-.637,1.721-1.4,2.422-2.039a64.361,64.361,0,0,1,6.755-5.608,47.607,47.607,0,0,1,15.741-7.839c-1.02-1.976-1.721-3.25-1.784-3.314" transform="translate(0 -10.004)"/><path class="a" d="M43.542,23.042c-1.466-2.422-3.123-4.142-6.628-4.142H24.359c-4.4,0-5.927,2.74-7.775,6.245-.51.956-1.083,2.1-1.784,3.314,1.338-.51,2.677-1.02,4.015-1.466a76.4,76.4,0,0,1,24.727-3.951" transform="translate(-5.368 -6.855)"/><path class="a" d="M179.63,35.433c1.593,0,2.868.637,4.4,2.231l.127.127,2.294-2.74-.064-.064a8.327,8.327,0,0,0-6.628-3.186,7.576,7.576,0,0,0-5.8,2.549,10.874,10.874,0,0,0-2.358,7.2,10.584,10.584,0,0,0,2.358,7.01,7.446,7.446,0,0,0,5.736,2.677,7.911,7.911,0,0,0,6.691-3.505l.064-.064-2.485-2.485-.064.127c-1.466,1.53-2.422,2.231-4.079,2.231-2.613,0-4.27-2.294-4.27-6.054-.127-3.76,1.466-6.054,4.079-6.054" transform="translate(-62.241 -11.534)"/><path class="a" d="M204.566,35.205c3.314,0,4.079,2.677,4.206,4.334h-8.221c.319-2.74,1.721-4.334,4.015-4.334m.255-3.505a7.825,7.825,0,0,0-5.927,2.485,10.952,10.952,0,0,0-2.294,7.2c0,5.736,3.314,9.687,8.094,9.687a8.9,8.9,0,0,0,6.437-2.422l.064-.064L208.9,46.1l-.127.064a6.186,6.186,0,0,1-3.887,1.466c-2.422,0-4.079-1.784-4.461-4.78h12.108v-.319a9.88,9.88,0,0,0,.064-1.466c.064-5.672-3-9.368-7.775-9.368" transform="translate(-71.309 -11.498)"/><path class="a" d="M232.066,39.284c-2.8-1.083-3.314-1.721-3.314-2.549,0-1.02.828-1.53,2.358-1.53a8.3,8.3,0,0,1,4.716,1.53l.127.064,1.721-3-.127-.064a11.108,11.108,0,0,0-6.309-2.039,7.545,7.545,0,0,0-4.588,1.275,4.518,4.518,0,0,0-1.784,3.824c0,2.868,1.338,4.27,5.481,5.927,2.677,1.02,4.206,1.657,4.206,2.932s-1.083,1.912-3.25,1.912a9.574,9.574,0,0,1-5.29-1.784l-.127-.064L224.1,48.652l.064.064a12.584,12.584,0,0,0,7.138,2.358,9.312,9.312,0,0,0,4.907-1.211,4.964,4.964,0,0,0,2.167-4.334c0-3.441-2.039-4.588-6.309-6.245" transform="translate(-81.283 -11.498)"/><path class="a" d="M257.966,47.5a5.58,5.58,0,0,1-4.142-2.294V37.563a5.235,5.235,0,0,1,4.015-2.231c2.677,0,4.015,2.1,4.015,6.5-.064,3.76-1.338,5.672-3.887,5.672m.51-15.8a6.862,6.862,0,0,0-4.652,1.976h0a9.027,9.027,0,0,0-.319-1.4H250v26l3.824-1.657V49.225a6.586,6.586,0,0,0,4.461,1.912,6.853,6.853,0,0,0,5.162-2.294,10.57,10.57,0,0,0,2.231-7.074c0-6.437-2.613-10.069-7.2-10.069" transform="translate(-90.677 -11.498)"/><path class="a" d="M152.412,31.7a5.89,5.89,0,0,0-4.461,1.848,7.458,7.458,0,0,0-.319-1.275H144V50.691h3.887V39.857c0-2.868,1.338-4.588,3.633-4.588,2.549,0,3.633,1.529,3.633,4.907V50.691h3.887V40.048c0-5.481-2.294-8.349-6.628-8.349" transform="translate(-52.23 -11.498)"/><path class="a" d="M121.492,51.655a5.89,5.89,0,0,0,4.461-1.848,7.456,7.456,0,0,0,.319,1.275h3.569V32.6h-3.887V43.5c0,2.868-1.338,4.588-3.633,4.588-2.549,0-3.633-1.529-3.633-4.907V32.6H114.8V43.306c0,5.481,2.294,8.348,6.692,8.348" transform="translate(-41.639 -11.824)"/><path class="a" d="M90.9,21.7V47.128h3.951V35.4h8.157V31.514H94.851V25.524h10.9l1.338-3.824Z" transform="translate(-32.97 -7.871)"/></svg>