<svg xmlns="http://www.w3.org/2000/svg" viewBox="0 0 93.529 25"><defs><style>.a{fill:#fff;}</style></defs><path class="a" d="M27.981,2.691a2.691,2.691,0,0,1-5.381,0,2.691,2.691,0,0,1,5.381,0" transform="translate(-14.902)"/><path class="a" d="M46.281,2.691a2.691,2.691,0,1,1-5.381,0,2.691,2.691,0,1,1,5.381,0" transform="translate(-26.969)"/><path class="a" d="M50.857,35A20.532,20.532,0,0,0,43.7,38.985c-.068.068-.136.1-.2.17a26.6,26.6,0,0,0,3.781,3.372,7.533,7.533,0,0,0,4.6,1.533h3.849c-.034,0-3.065-5.654-4.871-9.06" transform="translate(-28.684 -23.079)"/><path class="a" d="M20.811,27.588a22.554,22.554,0,0,0-4.292.307A44.029,44.029,0,0,0,3.644,32.356C1.873,35.728,0,39.168,0,39.168H3.849a7.533,7.533,0,0,0,4.6-1.533c.443-.341.92-.749,1.294-1.09a34.4,34.4,0,0,1,3.61-3,25.443,25.443,0,0,1,8.413-4.189c-.545-1.056-.92-1.737-.954-1.771" transform="translate(0 -18.187)"/><path class="a" d="M30.161,21.114A3.781,3.781,0,0,0,26.619,18.9h-6.71c-2.35,0-3.168,1.465-4.155,3.338-.272.511-.579,1.124-.954,1.771.715-.272,1.431-.545,2.146-.783a40.83,40.83,0,0,1,13.215-2.112" transform="translate(-9.759 -12.463)"/><path class="a" d="M175.892,33.741a3.105,3.105,0,0,1,2.35,1.192l.068.068,1.226-1.465L179.5,33.5a4.45,4.45,0,0,0-3.542-1.7,4.049,4.049,0,0,0-3.1,1.362,5.812,5.812,0,0,0-1.26,3.849,5.657,5.657,0,0,0,1.26,3.747,3.979,3.979,0,0,0,3.065,1.431,4.228,4.228,0,0,0,3.576-1.873l.034-.034-1.328-1.328-.034.068a2.809,2.809,0,0,1-2.18,1.192c-1.4,0-2.282-1.226-2.282-3.236-.068-2.01.783-3.236,2.18-3.236" transform="translate(-113.153 -20.969)"/><path class="a" d="M200.857,33.573a2.212,2.212,0,0,1,2.248,2.316h-4.394c.17-1.465.92-2.316,2.146-2.316m.136-1.873a4.182,4.182,0,0,0-3.168,1.328,5.854,5.854,0,0,0-1.226,3.849c0,3.065,1.771,5.177,4.326,5.177a4.755,4.755,0,0,0,3.44-1.294l.034-.034L203.174,39.4l-.068.034a3.306,3.306,0,0,1-2.078.783c-1.294,0-2.18-.954-2.384-2.555h6.471v-.17a5.282,5.282,0,0,0,.034-.783c.034-3.031-1.6-5.007-4.155-5.007" transform="translate(-129.638 -20.903)"/><path class="a" d="M228.357,35.753c-1.5-.579-1.771-.92-1.771-1.362,0-.545.443-.817,1.26-.817a4.436,4.436,0,0,1,2.52.817l.068.034.92-1.6-.068-.034a5.937,5.937,0,0,0-3.372-1.09,4.032,4.032,0,0,0-2.452.681,2.415,2.415,0,0,0-.954,2.044c0,1.533.715,2.282,2.929,3.168,1.431.545,2.248.886,2.248,1.567s-.579,1.022-1.737,1.022a5.117,5.117,0,0,1-2.827-.954l-.068-.034L224.1,40.76l.034.034a6.726,6.726,0,0,0,3.815,1.26,4.977,4.977,0,0,0,2.623-.647,2.653,2.653,0,0,0,1.158-2.316c0-1.839-1.09-2.452-3.372-3.338" transform="translate(-147.772 -20.903)"/><path class="a" d="M254.257,40.147a2.982,2.982,0,0,1-2.214-1.226V34.834a2.8,2.8,0,0,1,2.146-1.192c1.431,0,2.146,1.124,2.146,3.474-.034,2.01-.715,3.031-2.078,3.031m.272-8.447a3.667,3.667,0,0,0-2.486,1.056h0a4.827,4.827,0,0,0-.17-.749H250V45.9l2.044-.886V41.066a3.52,3.52,0,0,0,2.384,1.022,3.663,3.663,0,0,0,2.759-1.226,5.649,5.649,0,0,0,1.192-3.781c0-3.44-1.4-5.381-3.849-5.381" transform="translate(-164.85 -20.903)"/><path class="a" d="M148.5,31.7a3.148,3.148,0,0,0-2.384.988,3.985,3.985,0,0,0-.17-.681H144V41.85h2.078V36.06c0-1.533.715-2.452,1.941-2.452,1.362,0,1.941.817,1.941,2.623v5.62h2.078V36.162c0-2.929-1.226-4.462-3.542-4.462" transform="translate(-94.954 -20.903)"/><path class="a" d="M118.376,42.784a3.148,3.148,0,0,0,2.384-.988,3.986,3.986,0,0,0,.17.681h1.907V32.6H120.76v5.824c0,1.533-.715,2.452-1.941,2.452-1.362,0-1.941-.817-1.941-2.623V32.6H114.8v5.722c0,2.929,1.226,4.462,3.576,4.462" transform="translate(-75.699 -21.496)"/><path class="a" d="M90.9,21.7V35.29h2.112V29.023h4.36V26.945h-4.36v-3.2h5.824l.715-2.044Z" transform="translate(-59.939 -14.309)"/></svg>