<svg xmlns="http://www.w3.org/2000/svg" viewBox="0 0 112.234 112.234"><defs><style>.a{fill:#d70b32}.b{fill:#fff}</style></defs><g transform="translate(-627 -66)"><ellipse class="a" cx="56.117" cy="56.117" rx="56.117" ry="56.117" transform="translate(627 66)"/><path class="b" d="M712.093 103.173h-58.15a2.947 2.947 0 0 0-2.943 2.943v8.826a2.417 2.417 0 0 0 1.123 2.049 6.04 6.04 0 0 1 2.887 5.166 6.04 6.04 0 0 1-2.888 5.166 2.417 2.417 0 0 0-1.122 2.05v8.826a2.947 2.947 0 0 0 2.943 2.943h58.15a2.947 2.947 0 0 0 2.943-2.943v-32.083a2.947 2.947 0 0 0-2.943-2.943zm1.067 35.026a1.068 1.068 0 0 1-1.067 1.067H665.91v-.065a.938.938 0 1 0-1.876 0v.065h-10.091a1.068 1.068 0 0 1-1.067-1.067v-8.826a.53.53 0 0 1 .234-.454 7.9 7.9 0 0 0 3.777-6.762 7.9 7.9 0 0 0-3.777-6.762.53.53 0 0 1-.234-.454v-8.826a1.068 1.068 0 0 1 1.067-1.067h10.09v.065a.938.938 0 1 0 1.876 0v-.065h46.184a1.068 1.068 0 0 1 1.067 1.067z"/><path class="b" d="M664.972 120.217a.938.938 0 0 0-.938.938v2.005a.938.938 0 0 0 1.876 0v-2.005a.938.938 0 0 0-.938-.938z"/><path class="b" d="M664.972 108.186a.938.938 0 0 0-.938.938v2.005a.938.938 0 1 0 1.876 0v-2.005a.938.938 0 0 0-.938-.938z"/><path class="b" d="M664.972 114.202a.938.938 0 0 0-.938.938v2.005a.938.938 0 0 0 1.876 0v-2.005a.938.938 0 0 0-.938-.938z"/><path class="b" d="M664.972 126.233a.938.938 0 0 0-.938.938v2.005a.938.938 0 1 0 1.876 0v-2.005a.938.938 0 0 0-.938-.938z"/><path class="b" d="M664.972 132.248a.938.938 0 0 0-.938.938v2.005a.938.938 0 1 0 1.876 0v-2.005a.938.938 0 0 0-.938-.938z"/><path class="b" d="M701.225 118.923a2.427 2.427 0 0 0-2.154-1.679l-5.534-.377-2.067-5.147a2.438 2.438 0 0 0-4.525 0l-2.068 5.147-5.534.375a2.438 2.438 0 0 0-1.4 4.3l4.257 3.557-1.353 5.379a2.438 2.438 0 0 0 3.661 2.66l4.7-2.949 4.7 2.949a2.438 2.438 0 0 0 3.661-2.66l-1.353-5.379 4.257-3.557a2.427 2.427 0 0 0 .752-2.619zm-1.959 1.185l-4.709 3.934a.938.938 0 0 0-.308.949l1.5 5.951a.562.562 0 0 1-.844.613l-5.2-3.262a.938.938 0 0 0-1 0l-5.2 3.262a.562.562 0 0 1-.844-.613l1.5-5.951a.938.938 0 0 0-.308-.949l-4.71-3.935a.562.562 0 0 1 .322-.992l6.122-.415a.938.938 0 0 0 .807-.586l2.287-5.694a.562.562 0 0 1 1.043 0l2.286 5.694a.938.938 0 0 0 .807.586l6.122.415a.562.562 0 0 1 .323.992z"/></g></svg>